<svg width="136" height="136" viewBox="0 0 136 136" fill="none" xmlns="http://www.w3.org/2000/svg">
<path fill-rule="evenodd" clip-rule="evenodd" d="M12 0H124V2H126H128V4H132V8H134V10V12H136V124H134V126V128H132V132H128V134H126H124V136H12V134H10H8V132H4V128H2V126V124H0V12H2V10V8H4V4H8V2H10H12V0Z" fill="#050327"/>
<path d="M98.6491 18H100.695V20.0394H102.738V24.122H104.784V28.2042H100.693V30.244H98.6491V34.3262H96.6055V38.4084H94.5604V40.4482H92.5164V42.4891H90.4713V44.5304H88.4258V46.5702H84.3368V48.6111H82.2943V50.6524H80.2492V52.6937H86.3834V50.6524H90.4725V48.6111H92.5179V46.5702H94.5615V44.5304H96.607V42.4891H98.6506V40.4482H100.696V36.366H102.74V34.3262H104.785V32.2849H106.829V36.3671H108.874V40.4493H106.829V42.4891H102.74V44.5304H100.695V48.6126H98.6491V50.6524H94.5604V52.6937H92.5164V54.7346H88.4258V56.7744H86.3823V58.8157H92.5164V56.7759H96.6055V54.7346H100.695V52.6937H102.738V48.6111H104.784V46.5702H106.827V48.6111H108.873V50.6524H106.827V54.7346H104.785V56.7744H102.74V58.8157H100.695V60.8566H98.6491V64.9388H94.5604V66.9786H90.4713V69.0199H84.3368V71.0608H86.3823V73.1021H88.4258V75.1434H90.4713V79.2256H92.5164V81.2654H94.5604V83.3063H96.6055V85.3461H100.695V87.3874H108.873V85.3461H110.916V87.3874H112.962V89.4283H110.916V91.4696H106.827V93.5105H102.738V95.5503H96.6055V97.5916H82.2932V95.5503H78.2026V93.5105H63.893V113.918H61.8479V118H57.7588V115.959H51.6261V113.918H49.5807V111.878H51.6261V109.836H55.7152V111.876H57.7588V91.4696H59.8043V89.4283H70.0275V87.3874H67.982V85.3461H63.8918V83.3078H61.8479V77.1843H59.8043V71.0608H57.7588V66.9786H55.7137V62.8964H53.6686V60.8566H51.6246V58.8157H49.5795V56.7759H47.5355V54.7346H45.4904V52.6937H35.3513V50.6524H27.0891V48.6111H23V46.5702H29.1174V48.6111H49.5795V46.5702H51.6246V44.5304H57.7576V42.4891H61.8479V44.5304H65.9354V46.5702H67.9809V48.6111H70.026V54.7346H67.9809V60.8566H70.026V56.7759H72.0699V54.7346H74.1151V44.5304H76.159V42.4891H78.2041V40.4482H80.2477V38.4069H82.2932V36.3686H84.3368V34.3273H86.3823V30.2451H88.4258V28.2042H90.4713V26.1629H92.5164V22.0807H94.5604V20.0394H98.6506V18H98.6491ZM47.5355 81.2654H49.5795V75.1434H55.7137V77.1828H57.7576V79.2241H59.8027V81.2654H55.7137V79.2241H53.6686V85.3461H51.6246V89.4283H49.5795V91.4696H45.4904V89.4283H39.3563V85.3461H43.4465V87.3874H47.5355V81.2654ZM59.8043 48.6111H57.7588V50.6524H55.7137V52.6937H57.7576V54.7346H59.8027V52.6937H61.8463V50.6524H59.8043V48.6111Z" fill="#E6E1FE"/>
</svg>
